<svg id="Layer_1" data-name="Layer 1" xmlns="http://www.w3.org/2000/svg" viewBox="0 0 3333.9 2494.18"><defs><style>.cls-1{fill:#b3b3b3;}.cls-2{fill:#a6120d;}.cls-3{fill:#dd1b16;}.cls-4{fill:#f2f2f2;}</style></defs><path class="cls-1" d="M1181.35,3.16,7.86,416.14,193.3,1953.6l989.29,543.73,994.4-551.1L2362.36,408.82Z" transform="translate(482.24 -3.16)"/><path class="cls-2" d="M2245.32,497.68,1178.61,133.92V2367.43l894-494.75,172.75-1375Z" transform="translate(482.24 -3.16)"/><path class="cls-3" d="M139.54,504.24l158.91,1375,880.14,488.18V133.89l-1039,370.34Z" transform="translate(482.24 -3.16)"/><path class="cls-4" d="M1472.24,1322.92l-293.63,137.31H869.13L723.66,1824.11l-270.59,5L1178.61,215l293.63,1107.9Zm-28.38-69.13L1180.57,732.55l-216,512.27h214l265.26,9Z" transform="translate(482.24 -3.16)"/><path class="cls-1" d="M1178.6,215l2,517.53,245,512.67H1179.16l-.56,214.68,340.78.33,159.27,368.94,258.92,4.79L1178.6,215Z" transform="translate(482.24 -3.16)"/><rect class="cls-1" y="1243.23" width="3333.9" height="230.68" rx="47.93"/><polygon class="cls-4" points="2572.23 1385.4 761.58 1385.4 761.58 1297.35 2572.41 1297.35 2572.23 1385.4"/><path class="cls-1" d="M230.46,780.22H106.31A48.88,48.88,0,0,0,57.43,829.1V951.3A48.87,48.87,0,0,0,8.55,902.42H-115.6a48.87,48.87,0,0,0-48.87,48.88v122.19a48.88,48.88,0,0,0-48.88-48.87H-337.5a48.87,48.87,0,0,0-48.88,48.87V1664.1A48.87,48.87,0,0,0-337.5,1713h124.15a48.88,48.88,0,0,0,48.88-48.88v122.2a48.87,48.87,0,0,0,48.87,48.88H8.55a48.87,48.87,0,0,0,48.88-48.88v122.2a48.89,48.89,0,0,0,48.88,48.88H230.46a48.88,48.88,0,0,0,48.88-48.88V829.1A48.87,48.87,0,0,0,230.46,780.22Z" transform="translate(482.24 -3.16)"/><path class="cls-1" d="M2139,780.22h124.15A48.88,48.88,0,0,1,2312,829.1V951.3a48.87,48.87,0,0,1,48.88-48.88H2485a48.88,48.88,0,0,1,48.89,48.88v122.19a48.87,48.87,0,0,1,48.87-48.87h124.15a48.87,48.87,0,0,1,48.88,48.87V1664.1a48.87,48.87,0,0,1-48.88,48.88H2582.77a48.87,48.87,0,0,1-48.87-48.88v122.2a48.88,48.88,0,0,1-48.89,48.88H2360.87A48.87,48.87,0,0,1,2312,1786.3v122.2a48.89,48.89,0,0,1-48.88,48.88H2139a48.88,48.88,0,0,1-48.88-48.88V829.1A48.87,48.87,0,0,1,2139,780.22Z" transform="translate(482.24 -3.16)"/><polygon class="cls-4" points="672.43 1783.14 606.05 1783.14 539.67 1891.21 539.67 825.94 606.05 948.14 672.43 948.14 672.43 1783.14"/><polygon class="cls-4" points="450.53 1660.94 384.14 1660.94 317.76 1783.14 317.76 948.14 384.14 1070.34 450.53 1070.34 450.53 1660.94"/><polygon class="cls-4" points="228.62 1471.38 162.24 1471.38 95.86 1660.94 95.86 1070.34 162.24 1259.9 228.62 1259.9 228.62 1471.38"/><polygon class="cls-4" points="2661.46 1783.14 2727.84 1783.14 2794.22 1891.21 2794.22 825.94 2727.84 948.14 2661.46 948.14 2661.46 1783.14"/><polygon class="cls-4" points="2883.37 1660.94 2949.75 1660.94 3016.13 1783.14 3016.13 948.14 2949.75 1070.34 2883.37 1070.34 2883.37 1660.94"/><polygon class="cls-4" points="3105.28 1471.38 3171.66 1471.38 3238.04 1660.94 3238.04 1070.34 3171.66 1259.9 3105.28 1259.9 3105.28 1471.38"/></svg>