<svg id="Layer_1" data-name="Layer 1" xmlns="http://www.w3.org/2000/svg" viewBox="0 0 2343.79 2485.7"><defs><style>.cls-1{fill:#e23237;}.cls-2{fill:#b52e31;}.cls-3{fill:#fff;}.cls-4{fill:#a32127;}.cls-5{fill:#2f3c4f;}</style></defs><path class="cls-1" d="M1,418.4l1156.32-412L2344.74,411.08,2152.47,1941l-995.2,551.15L177.65,1948.27Z" transform="translate(-0.95 -6.41)"/><path class="cls-2" d="M2344.74,411.08,1157.27,6.41V2492.1l995.2-550.23L2344.74,411.08Z" transform="translate(-0.95 -6.41)"/><path class="cls-3" d="M1159.1,296.64,438.58,1899.75l269.16-4.58L852.4,1533.53h646.37l158.39,366.22,257.26,4.58L1159.1,296.64Zm1.84,513.62,243.53,509H946.69l214.25-509Z" transform="translate(-0.95 -6.41)"/><path class="cls-4" d="M2152.47,1941l41.77-332.44-433-318s-323.3,0-371.73.37S1222.11,1530,1222.11,1530L901.68,1290.85h-431L300.85,1544.1l-.79,223.32,124,242.35,59.66,108.42,673.54,373.91Z" transform="translate(-0.95 -6.41)"/><path class="cls-5" d="M1996,1554.72c8.52,65.4,8.07,135.69-2.44,202.09C2048.26,1715.74,2040.84,1581.9,1996,1554.72Z" transform="translate(-0.95 -6.41)"/><path class="cls-5" d="M1565.33,1465.89c-33.9-104.05-91-170.94-146.3-175-77,5.42-142,103.38-167.35,239.19h57.72c17.61-46.21,44.63-75.82,74.94-75.82,53.05,0,96.05,90.58,96.05,202.32s-43,202.32-96.05,202.32c-30.44,0-57.56-29.87-75.16-76.41h-57.51c25.16,134.87,89.42,232.44,165.71,239.13h0C1541.65,1996.82,1656.8,1746.59,1565.33,1465.89Z" transform="translate(-0.95 -6.41)"/><path class="cls-5" d="M617,1465.89c-33.9-104.05-91.06-170.94-146.31-175C391,1296.45,324.21,1401,300.85,1544.1c16.95-33,41.18-53.88,68.19-53.88,51.22,0,92.74,74.46,92.74,166.32S420.26,1822.86,369,1822.86c-27.43,0-52-21.49-69-55.44,21.5,142.6,83.73,247.23,162.81,254.16C591.13,2004.2,708.41,1746.59,617,1465.89Z" transform="translate(-0.95 -6.41)"/><path class="cls-5" d="M424.07,1656.54c0,71.12-31.63,128.78-70.64,128.78s-70.63-57.66-70.63-128.78,31.63-128.78,70.63-128.78S424.07,1585.41,424.07,1656.54Z" transform="translate(-0.95 -6.41)"/><path class="cls-5" d="M518.74,2022H693.21c197.25-161.66,157.16-454.1,114.85-571.82-29.52-82.18-69.48-138.27-91-159.7H536.81c45.76,26.8,83.39,88.26,114.2,171C708.88,1616.94,693.73,1960.71,518.74,2022Z" transform="translate(-0.95 -6.41)"/><path class="cls-5" d="M1343.55,1550.48H1026.8c-18-131.93-72.66-243-154.86-260H751c18.14,21,38,52.17,53.54,82.33,42.5,82.72,167.25,436-78,649.19H871.94c84.31-44.45,133.16-146.09,152.14-260h319.47c56.87,0,103.4-46.53,103.4-103.4v-4.72C1447,1597,1400.42,1550.48,1343.55,1550.48Z" transform="translate(-0.95 -6.41)"/><path class="cls-5" d="M1750.53,1450.18c-29.52-82.18-69.48-138.27-91-159.7H1479.28c45.76,26.8,83.4,88.26,114.2,171,57.87,155.45,44.45,501.94-134.7,560.51h176.9C1832.93,1860.34,1792.84,1567.9,1750.53,1450.18Z" transform="translate(-0.95 -6.41)"/><path class="cls-5" d="M1818.38,1290.48H1697.47c18.15,21,38,52.17,53.55,82.33,42.5,82.72,167.25,436-78,649.19h145.33C2053.17,1898.22,2013,1330.79,1818.38,1290.48Z" transform="translate(-0.95 -6.41)"/></svg>